# xmcd
#
# Track frame offsets:
#	150
#	6563
#	22721
#	29905
#	43627
#	58910
#	73032
#	81598
#	86314
#	101848
#	112700
#	129738
#	142029
#	157124
#	173464
#
# Disc length: 2494 seconds
#
# Revision: 0
# Processed by: cddbd v1.4PL0 Copyright (c) Steve Scherf et al.
# Submitted via: audiograbber 1.80.04
#
DISCID=cd09bc0f
DTITLE=Lightnin' Hopkins - Jazz and Blues
DYEAR=1999
DGENRE=Blues
TTITLE0=Bluebird, bluebird
TTITLE1=gonna' fulla party
TTITLE2=long time
TTITLE3=baby
TTITLE4=worrying my mind
TTITLE5=see see rider
TTITLE6=bunion stew
TTITLE7=till the gin gets here
TTITLE8=go down old hannan
TTITLE9=you got to work to get your pay
TTITLE10=hear my blackdog bark
TTITLE11=backwater blues
TTITLE12=prision blues come down on me
TTITLE13=long gone like a turkeythru the corn
TTITLE14=rainy day blues
EXTD=
EXTT0=
EXTT1=
EXTT2=
EXTT3=
EXTT4=
EXTT5=
EXTT6=
EXTT7=
EXTT8=
EXTT9=
EXTT10=
EXTT11=
EXTT12=
EXTT13=
EXTT14=
PLAYORDER=
